<?xml version="1.0" standalone="no"?>
<!DOCTYPE svg PUBLIC "-//W3C//DTD SVG 1.1//EN" "http://www.w3.org/Graphics/SVG/1.1/DTD/svg11.dtd">
<svg xmlns="http://www.w3.org/2000/svg">
<metadata>Generated by Fontastic.me</metadata>
<defs>
<font id="icofont" horiz-adv-x="512">
<font-face font-family="icofont" units-per-em="512" ascent="480" descent="-32"/>
<missing-glyph horiz-adv-x="512" />

<glyph glyph-name="add-image" unicode="&#97;" d="M64 427l0 64 43 0 0-64 64 0 0-43-64 0 0-64-43 0 0 64-64 0 0 43z m64-128l0 64 64 0 0 64 149 0 39-43 68 0c23 0 43-19 43-43l0-256c0-23-20-42-43-42l-341 0c-24 0-43 19-43 42l0 214z m149-192c59 0 107 47 107 106 0 59-48 107-107 107-59 0-106-48-106-107 0-59 47-106 106-106z m-68 106c0-37 31-68 68-68 38 0 69 31 69 68 0 38-31 69-69 69-37 0-68-31-68-69z"/>
<glyph glyph-name="arrow-down" unicode="&#98;" d="M158 329l98-98 98 98 30-30-128-128-128 128z"/>
<glyph glyph-name="arrow-left" unicode="&#99;" d="M329 158l-98 98 98 98-30 30-128-128 128-128z"/>
<glyph glyph-name="arrow-right" unicode="&#100;" d="M183 158l98 98-98 98 30 30 128-128-128-128z"/>
<glyph glyph-name="arrow-up" unicode="&#101;" d="M158 183l98 98 98-98 30 30-128 128-128-128z"/>
<glyph glyph-name="bookmark-empty" unicode="&#103;" d="M363 448l-214 0c-23 0-42-19-42-43l0-341 149 64 149-64 0 341c0 24-19 43-42 43z m0-320l-107 47-107-47 0 277 214 0z"/>
<glyph glyph-name="comments" unicode="&#104;" d="M402 293c0-27-9-51-27-74-17-22-42-40-73-53-31-13-64-20-101-20-16 0-33 2-50 5-24-17-50-29-80-37-6-1-15-3-24-4l-1 0c-2 0-4 0-6 2-2 2-3 4-3 6 0 1 0 1 0 2 0 1 0 1 0 2 0 0 0 1 0 1l1 2 1 1 1 2 1 1 2 2c1 1 3 3 6 7 4 3 6 6 8 8 1 2 3 5 6 8 3 4 5 8 7 11 2 4 4 8 6 13-24 14-42 31-56 51-13 20-20 41-20 64 0 26 9 51 27 73 18 22 42 40 73 53 31 13 65 20 101 20 37 0 70-7 101-20 31-13 56-31 73-53 18-22 27-47 27-73z m110-74c0-22-7-44-20-64-14-20-32-36-56-50 2-5 4-9 6-13 2-4 4-7 7-11 3-3 5-6 6-8 2-2 4-5 8-8 3-4 5-6 6-8 1 0 1 0 2-1 0-1 1-1 1-1 0-1 1-1 1-2 0 0 1-1 1-1l1-2 0-1 0-2 0-2c0-3-2-5-4-6-1-2-4-3-6-2-9 1-18 2-24 4-30 8-56 20-80 37-17-3-34-5-50-5-52 0-97 13-135 38 11-1 19-1 25-1 31 0 60 4 88 13 29 8 54 20 76 36 24 18 42 38 55 61 12 23 19 47 19 73 0 14-2 29-7 43 25-14 44-30 59-51 14-20 21-42 21-66z"/>
<glyph glyph-name="ellipsis" unicode="&#105;" d="M165 302l0-55c0-8-3-14-8-20-6-5-12-8-20-8l-55 0c-7 0-14 3-19 8-5 6-8 12-8 20l0 55c0 7 3 14 8 19 5 5 12 8 19 8l55 0c8 0 14-3 20-8 5-5 8-12 8-19z m146 0l0-55c0-8-3-14-8-20-5-5-12-8-20-8l-54 0c-8 0-15 3-20 8-5 6-8 12-8 20l0 55c0 7 3 14 8 19 5 5 12 8 20 8l54 0c8 0 15-3 20-8 5-5 8-12 8-19z m146 0l0-55c0-8-3-14-8-20-5-5-12-8-19-8l-55 0c-8 0-14 3-20 8-5 6-8 12-8 20l0 55c0 7 3 14 8 19 6 5 12 8 20 8l55 0c7 0 14-3 19-8 5-5 8-12 8-19z"/>
<glyph glyph-name="eye" unicode="&#106;" d="M256 373c81 0 153-45 188-117-35-72-107-117-188-117-81 0-153 45-188 117 35 72 107 117 188 117m0 43c-107 0-198-66-235-160 37-94 128-160 235-160 107 0 198 66 235 160-37 94-128 160-235 160z m0-107c29 0 53-24 53-53 0-29-24-53-53-53-29 0-53 24-53 53 0 29 24 53 53 53m0 43c-53 0-96-43-96-96 0-53 43-96 96-96 53 0 96 43 96 96 0 53-43 96-96 96z"/>
<glyph glyph-name="fb" unicode="&#107;" d="M192 341l-64 0 0-85 64 0 0-256 107 0 0 256 77 0 8 85-85 0 0 36c0 20 4 28 23 28l62 0 0 107-81 0c-77 0-111-34-111-98z"/>
<glyph glyph-name="github" unicode="&#108;" d="M256 512c-141 0-256-115-256-256 0-113 73-209 175-243 13-2 17 6 17 12l0 48c-71-15-86 30-86 30-12 30-28 38-28 38-24 16 1 15 1 15 26-2 40-26 40-26 22-39 59-28 74-21 2 16 9 27 16 34-57 6-116 28-116 126 0 28 10 51 26 69-3 7-11 33 3 68 0 0 21 7 70-26 20 5 42 8 64 8 22 0 44-3 64-8 49 33 70 26 70 26 14-35 6-61 3-68 16-18 26-41 26-69 0-98-60-120-117-126 10-8 18-23 18-47l0-71c0-6 4-14 17-12 102 34 175 130 175 243 0 141-115 256-256 256z"/>
<glyph glyph-name="google" unicode="&#109;" d="M467 292c-69 0-139 0-208 0 0-29 0-57 0-86 40 0 80 0 120 0-4-28-21-53-44-68-14-10-31-17-48-20-18-3-36-3-53 1-18 3-35 10-49 21-24 16-42 40-51 68-10 27-10 58 0 86 7 19 18 37 32 52 18 18 41 31 66 36 21 5 44 4 65-2 18-6 34-15 48-28 13 13 27 27 40 40 7 8 15 15 22 22-21 19-45 35-71 44-48 18-101 18-149 2-54-19-100-59-125-110-9-18-16-36-20-56-9-48-3-99 20-143 14-28 35-53 60-73 23-19 51-33 80-41 37-10 76-9 113-1 33 8 65 24 90 47 27 25 46 57 56 92 11 38 13 78 6 117z"/>
<glyph glyph-name="vk" unicode="&#110;" d="M281 107c13 0 18 8 18 19-1 41 15 63 44 35 32-32 38-54 77-54l68 0c17 0 24 5 24 14 0 18-30 51-56 75-36 33-38 34-7 74 39 50 89 114 45 114l-85 0c-17 0-18-9-24-23-21-50-61-115-77-105-16 10-8 51-7 112 0 16 0 27-25 33-13 3-26 4-38 4-49 0-82-20-63-24 33-6 30-78 22-110-13-54-64 44-86 92-5 12-6 21-25 21l-69 0c-11 0-17-3-17-11 0-13 63-143 123-208 59-64 117-58 158-58z"/>
<glyph glyph-name="twitter" unicode="&#111;" d="M512 415c-19-9-39-14-60-17 21 13 38 34 46 58-20-12-43-20-67-25-19 20-46 33-77 33-67 0-117-63-102-129-87 4-165 46-216 110-28-47-15-109 32-140-17 0-33 5-47 13-2-49 33-94 84-105-15-4-31-5-48-1 14-42 53-72 99-73-45-35-100-50-156-44 46-30 102-47 161-47 195 0 305 165 299 312 20 15 38 34 52 55z"/>
<glyph glyph-name="share" unicode="&#113;" d="M384 169c-16 0-31-6-42-16l-152 88c1 5 2 10 2 15 0 5-1 10-2 15l150 88c12-11 27-18 44-18 35 0 64 29 64 64 0 36-29 64-64 64-35 0-64-28-64-64 0-5 1-10 2-15l-150-87c-12 10-27 17-44 17-35 0-64-29-64-64 0-35 29-64 64-64 17 0 32 7 44 17l151-88c-1-5-1-10-1-14 0-35 28-63 62-63 34 0 62 28 62 63 0 34-28 62-62 62z m0 258c12 0 21-10 21-22 0-11-9-21-21-21-12 0-21 10-21 21 0 12 9 22 21 22z m-256-192c-12 0-21 9-21 21 0 12 9 21 21 21 12 0 21-9 21-21 0-12-9-21-21-21z m256-150c-12 0-21 10-21 21 0 12 9 22 21 22 12 0 21-10 21-22 0-11-9-21-21-21z"/>
<glyph glyph-name="search" unicode="&#114;" d="M331 213l-17 0-6 6c21 24 33 56 33 90 0 77-62 139-138 139-77 0-139-62-139-139 0-76 62-138 139-138 34 0 66 12 90 33l6-6 0-17 106-106 32 32z m-128 0c-53 0-96 43-96 96 0 53 43 96 96 96 53 0 96-43 96-96 0-53-43-96-96-96z"/>
<glyph glyph-name="save" unicode="&#115;" d="M363 448l-256 0c-24 0-43-19-43-43l0-298c0-24 19-43 43-43l298 0c24 0 43 19 43 43l0 256z m-107-341c-35 0-64 28-64 64 0 35 29 64 64 64 35 0 64-29 64-64 0-36-29-64-64-64z m64 213l-213 0 0 85 213 0z"/>
<glyph glyph-name="profile" unicode="&#116;" d="M256 512c-141 0-256-115-256-256 0-141 115-256 256-256 141 0 256 115 256 256 0 141-115 256-256 256z m165-391c-5 13-16 22-40 27-48 11-94 21-72 63 67 127 18 194-53 194-72 0-120-70-53-194 23-42-25-52-72-63-24-5-35-14-40-27-30 37-48 84-48 135 0 118 95 213 213 213 118 0 213-95 213-213 0-51-18-98-48-135z"/>
<glyph glyph-name="plus" unicode="&#117;" d="M512 299l-213 0 0 213-86 0 0-213-213 0 0-86 213 0 0-213 86 0 0 213 213 0z"/>
<glyph glyph-name="notification" unicode="&#118;" d="M256 43c23 0 43 19 43 42l-86 0c0-23 19-42 43-42z m128 128l0 106c0 66-35 121-96 135l0 15c0 17-14 32-32 32-18 0-32-15-32-32l0-15c-61-14-96-69-96-135l0-106-43-43 0-21 342 0 0 21z"/>
<glyph glyph-name="message" unicode="&#119;" d="M0 448l0-384 512 0 0 384z m459-43l-203-164-203 164z m-416-298l0 252 213-173 213 173 0-252z"/>
<glyph glyph-name="like-empty" unicode="&#120;" d="M256 315c5 24 33 133 115 133 47 0 98-33 98-107 0-83-77-180-213-269-136 89-213 186-213 269 0 75 50 107 97 107 84 0 110-109 116-133z m-256 26c0-87 65-202 256-320 191 118 256 233 256 320 0 170-206 193-256 80-50 112-256 91-256-80z"/>
<glyph glyph-name="like" unicode="&#121;" d="M256 417c-42 116-256 98-256-76 0-87 65-202 256-320 191 118 256 233 256 320 0 173-213 192-256 76z"/>
<glyph glyph-name="instagram" unicode="&#122;" d="M256 466c68 0 76 0 103-2 70-3 102-36 105-105 2-27 2-35 2-103 0-68 0-76-2-103-3-69-35-102-105-105-27-2-35-2-103-2-68 0-76 0-103 2-70 3-102 36-105 105-2 27-2 35-2 103 0 68 0 76 2 103 3 69 35 102 105 105 27 2 35 2 103 2z m0 46c-70 0-78 0-106-2-93-4-144-55-148-148-2-28-2-36-2-106 0-70 0-78 2-106 4-93 55-144 148-148 28-2 36-2 106-2 70 0 78 0 106 2 92 4 144 55 148 148 2 28 2 36 2 106 0 70 0 78-2 106-4 92-55 144-148 148-28 2-36 2-106 2z m0-125c-73 0-131-58-131-131 0-73 58-131 131-131 73 0 131 58 131 131 0 73-58 131-131 131z m0-216c-47 0-85 38-85 85 0 47 38 85 85 85 47 0 85-38 85-85 0-47-38-85-85-85z m137 252c-17 0-31-13-31-30 0-17 14-31 31-31 17 0 30 14 30 31 0 17-13 30-30 30z"/>
<glyph glyph-name="telegram" unicode="&#65;" d="M392 26c7-5 16-6 24-3 8 3 14 10 15 18 19 87 64 308 81 387 1 6-1 12-6 16-5 4-11 5-17 3-89-33-365-137-477-178-8-3-12-10-12-17 0-8 5-14 13-17 50-15 116-36 116-36 0 0 31-93 48-141 2-6 6-10 12-12 7-2 13 0 18 4 26 25 66 63 66 63 0 0 76-56 119-87z m-235 185l36-118 8 75c0 0 138 125 217 196 3 2 3 5 1 8-2 2-5 3-8 1-91-58-254-162-254-162z"/>
<glyph glyph-name="close" unicode="&#66;" d="M405 375l-30 30-119-119-119 119-30-30 119-119-119-119 30-30 119 119 119-119 30 30-119 119z"/>
<glyph glyph-name="menu" unicode="&#67;" d="M64 128l384 0 0 43-384 0z m0 107l384 0 0 42-384 0z m0 149l0-43 384 0 0 43z"/>
<glyph glyph-name="odk" unicode="&#68;" d="M375 256c-17 0-51-34-119-34-68 0-102 34-119 34-19 0-35-15-35-34 0-17 10-25 17-30 21-12 86-38 86-38l-73-93c0 0-13-16-13-27 0-19 16-34 35-34 17 0 25 11 25 11 0 0 77 92 77 91 0 1 77-91 77-91 0 0 8-11 25-11 19 0 35 15 35 34 0 11-13 27-13 27l-73 93c0 0 65 26 86 38 7 5 17 13 17 30 0 19-16 34-35 34z m-119 256c-66 0-119-53-119-119 0-66 53-120 119-120 66 0 119 54 119 120 0 66-53 119-119 119z m0-179c-33 0-60 27-60 60 0 33 27 59 60 59 33 0 60-26 60-59 0-33-27-60-60-60z"/>
<glyph glyph-name="bookmark" unicode="&#102;" d="M149 129l107 46 107-46 0 276-214 0z m214 319l-214 0c-23 0-42-19-42-43l0-341 149 64 149-64 0 341c0 24-19 43-42 43z m0-319l-107 45-107-45 0 276 214 0z"/>
<glyph glyph-name="edit" unicode="&#69;" d="M64 144l0-80 80 0 236 236-80 80z m378 218c8 8 8 22 0 30l-50 50c-8 8-22 8-30 0l-39-39 80-80z"/>
<glyph glyph-name="submit-outline" unicode="&#112;" d="M256 469c118 0 213-95 213-213 0-118-95-213-213-213-118 0-213 95-213 213 0 118 95 213 213 213z m0 43c-141 0-256-115-256-256 0-141 115-256 256-256 141 0 256 115 256 256 0 141-115 256-256 256z m43-256l-96-96 32-32 128 128-128 128-32-32z"/>
<glyph glyph-name="submit" unicode="&#70;" d="M256 512c-141 0-256-115-256-256 0-141 115-256 256-256 141 0 256 115 256 256 0 141-115 256-256 256z m-33-384l-31 30 98 98-98 98 31 30 127-128z"/>
<glyph glyph-name="settings" unicode="&#71;" d="M408 236c1 6 2 13 2 20 0 7-1 14-2 20l43 34c4 3 5 8 3 13l-41 71c-3 4-8 6-13 4l-51-20c-10 8-22 15-34 20l-8 54c-1 5-5 9-10 9l-82 0c-5 0-9-4-10-9l-8-54c-12-5-24-12-34-20l-51 20c-5 2-10 0-13-4l-41-71c-2-5-1-10 3-13l43-34c-1-6-2-13-2-20 0-7 1-14 2-20l-43-34c-4-3-5-8-3-13l41-71c3-4 8-6 13-4l51 20c10-8 22-15 34-20l8-54c1-5 5-9 10-9l82 0c5 0 9 4 10 9l8 54c12 5 24 12 34 20l51-20c5-2 10 0 13 4l41 71c2 5 1 10-3 13z m-152-57c-42 0-77 35-77 77 0 42 35 77 77 77 42 0 77-35 77-77 0-42-35-77-77-77z"/>
<glyph glyph-name="warning" unicode="&#72;" d="M21 64l470 0-235 405z m256 64l-42 0 0 43 42 0z m0 85l-42 0 0 86 42 0z"/>
<glyph glyph-name="lock" unicode="&#73;" d="M384 341l-21 0 0 43c0 59-48 107-107 107-59 0-107-48-107-107l0-43-21 0c-23 0-43-19-43-42l0-214c0-23 20-42 43-42l256 0c23 0 43 19 43 42l0 214c0 23-20 42-43 42z m-128-192c-23 0-43 20-43 43 0 23 20 43 43 43 23 0 43-20 43-43 0-23-20-43-43-43z m66 192l-132 0 0 43c0 36 30 66 66 66 36 0 66-30 66-66z"/>
</font>
</defs>
</svg>
